<svg width="550" height="584" viewBox="0 0 550 584" fill="none" xmlns="http://www.w3.org/2000/svg">
<path d="M0.0744295 210.062C0.0744295 205.611 0.156201 201.16 0.699035 196.731C0.818012 195.787 0.713922 194.821 0.713922 193.877C0.713922 193.877 3.46528 142.277 29.9972 105.672C51.2272 69.8841 80.2503 42.2632 117.334 23.2696C143.316 9.95333 170.948 2.47777 200.098 0.538287C211.237 -0.204811 222.369 0.0404116 233.508 0.0329807C245.294 0.0255497 257.013 1.0213 268.606 3.09454C317.037 11.7591 357.973 34.2006 391.13 70.5009C416.592 98.3819 433.419 130.885 441.711 167.75C442.581 171.636 442.603 171.659 446.7 171.741C454.516 171.897 462.242 172.655 469.893 174.341C515.402 184.373 549.452 226.068 549.906 272.609C550.084 291.037 549.95 309.466 549.973 327.895C549.987 340.81 548.604 353.591 545.422 366.098C532.208 418.025 501.928 456.592 454.293 481.352C441.569 487.966 428.653 494.208 415.751 500.457C413.305 501.646 412.398 502.976 412.427 505.755C412.591 520.224 412.494 534.699 412.509 549.167C412.509 555.097 411.253 560.73 408.323 565.879C401.638 577.613 391.435 583.751 377.969 583.892C358.903 584.093 339.836 583.959 320.77 583.922L204.894 583.959C182.489 583.944 160.077 583.989 137.672 583.929C122.301 583.885 109.221 574.247 104.655 559.816C103.488 556.115 103.109 552.333 103.094 548.476C103.042 533.139 102.923 517.801 102.96 502.471C102.96 500.13 102.38 498.689 100.305 497.366C92.3785 492.32 84.5483 487.111 76.7701 481.828C36.4963 454.459 11.816 416.822 2.625 369.07C0.728799 359.217 -0.00739462 349.229 4.14572e-05 339.183C0.0446579 296.143 0.0446471 253.095 0.0818275 210.055L0.0744295 210.062Z" fill="#010101"/>
</svg>
