<svg width="189" height="39" viewBox="0 0 189 39" fill="none" xmlns="http://www.w3.org/2000/svg">
<path d="M13.4317 30.1596L29.0688 25.9696M13.4317 30.1596L14.8355 35.3987L30.4726 31.2087L29.0688 25.9696M13.4317 30.1596C7.28346 28.0634 2.33754 20.0297 2.50435 17.1774C2.6378 14.8955 5.87887 14.7133 7.48273 14.9075M29.0688 25.9696C29.5475 24.2815 30.0371 19.1589 28.1653 12.1733C25.8256 3.44134 21.8827 2.62606 14.9329 4.48823C7.98314 6.35043 5.84492 8.79514 7.48273 14.9075M7.48273 14.9075C8.21786 15.3345 10.2095 16.0487 12.2944 15.49C14.3794 14.9313 18.3755 13.8606 20.1129 13.395M7.48273 14.9075C9.12055 21.0199 11.9608 21.1947 13.6982 20.7291" stroke="#EC3E3E" stroke-width="2.5" stroke-linecap="round" stroke-linejoin="round"/>
<path d="M44.7431 8.484H52.2951C54.0231 8.484 55.3138 8.94267 56.1671 9.86C57.0418 10.7773 57.4791 12.164 57.4791 14.02C57.4791 15.5773 57.2444 16.772 56.7751 17.604C56.3058 18.4147 55.5698 18.948 54.5671 19.204V19.332C55.6764 19.6093 56.4658 20.1427 56.9351 20.932C57.4258 21.7213 57.6711 22.948 57.6711 24.612C57.6711 26.5533 57.2551 28.0253 56.4231 29.028C55.5911 30.0093 54.2151 30.5 52.2951 30.5H44.7431V8.484ZM51.1111 17.476C51.6658 17.476 52.0818 17.412 52.3591 17.284C52.6578 17.156 52.8604 16.9107 52.9671 16.548C53.0951 16.1853 53.1591 15.6413 53.1591 14.916C53.1591 14.148 53.1058 13.5933 52.9991 13.252C52.8924 12.8893 52.7004 12.6547 52.4231 12.548C52.1458 12.42 51.7084 12.356 51.1111 12.356H49.0951V17.476H51.1111ZM51.2071 26.628C51.8044 26.628 52.2418 26.564 52.5191 26.436C52.7964 26.308 52.9884 26.0627 53.0951 25.7C53.2018 25.3373 53.2551 24.7613 53.2551 23.972C53.2551 23.1827 53.2018 22.6067 53.0951 22.244C52.9884 21.86 52.7858 21.604 52.4871 21.476C52.2098 21.348 51.7831 21.284 51.2071 21.284H49.0951V26.628H51.2071ZM66.8001 30.756C64.5814 30.756 63.0028 30.436 62.0641 29.796C61.1254 29.1347 60.5388 28.0893 60.3041 26.66C60.0694 25.2093 59.9521 22.82 59.9521 19.492C59.9521 16.1427 60.0694 13.7533 60.3041 12.324C60.5388 10.8947 61.1254 9.86 62.0641 9.22C63.0028 8.55867 64.5814 8.228 66.8001 8.228C69.0188 8.228 70.5974 8.55867 71.5361 9.22C72.4748 9.86 73.0614 10.8947 73.2961 12.324C73.5308 13.7533 73.6481 16.1427 73.6481 19.492C73.6481 22.82 73.5308 25.2093 73.2961 26.66C73.0614 28.0893 72.4748 29.1347 71.5361 29.796C70.5974 30.436 69.0188 30.756 66.8001 30.756ZM66.8001 26.884C67.6534 26.884 68.2294 26.7667 68.5281 26.532C68.8268 26.2973 69.0188 25.7213 69.1041 24.804C69.1894 23.8867 69.2321 22.116 69.2321 19.492C69.2321 16.868 69.1894 15.0973 69.1041 14.18C69.0188 13.2627 68.8268 12.6867 68.5281 12.452C68.2294 12.2173 67.6534 12.1 66.8001 12.1C65.9468 12.1 65.3708 12.2173 65.0721 12.452C64.7734 12.6867 64.5814 13.2627 64.4961 14.18C64.4108 15.0973 64.3681 16.868 64.3681 19.492C64.3681 22.116 64.4108 23.8867 64.4961 24.804C64.5814 25.7213 64.7734 26.2973 65.0721 26.532C65.3708 26.7667 65.9468 26.884 66.8001 26.884ZM85.1786 30.5L82.3306 22.596H82.0746L79.2586 30.5H74.6506L79.2586 19.428L74.7146 8.484H79.4506L82.2346 16.068H82.4586L85.2426 8.484H89.8506L85.3706 19.3L89.9466 30.5H85.1786ZM101.449 30.212C101.001 30.3613 100.414 30.4893 99.6889 30.596C98.9849 30.7027 98.3129 30.756 97.6729 30.756C95.6675 30.756 94.1955 30.4253 93.2569 29.764C92.3182 29.1027 91.6889 28.004 91.3689 26.468C91.0702 24.932 90.9209 22.6067 90.9209 19.492C90.9209 16.3987 91.0809 14.084 91.4009 12.548C91.7209 10.9907 92.3502 9.88133 93.2889 9.22C94.2489 8.55867 95.7102 8.228 97.6729 8.228C98.3769 8.228 99.0702 8.28133 99.7529 8.388C100.457 8.47333 101.001 8.59067 101.385 8.74V12.324C100.148 12.1747 99.2089 12.1 98.5689 12.1C97.4809 12.1 96.7235 12.2493 96.2969 12.548C95.8915 12.8253 95.6249 13.4333 95.4969 14.372C95.3902 15.3107 95.3369 17.0173 95.3369 19.492C95.3369 21.9667 95.3902 23.6733 95.4969 24.612C95.6249 25.5507 95.8915 26.1693 96.2969 26.468C96.7235 26.7453 97.4809 26.884 98.5689 26.884C99.5502 26.884 100.51 26.8093 101.449 26.66V30.212ZM112.92 30.5V21.444H108.408V30.5H104.024V8.484H108.408V17.38H112.92V8.484H117.304V30.5H112.92ZM130.25 30.5L129.386 25.988H124.458L123.594 30.5H119.21L123.754 8.484H130.186L134.73 30.5H130.25ZM127.018 12.644H126.826L125.098 22.18H128.714L127.018 12.644ZM151.561 30.5V14.276H151.369L148.201 30.5H144.137L141.033 14.276H140.777V30.5H136.649V8.484H143.305L146.185 23.716H146.409L149.257 8.484H155.817V30.5H151.561ZM159.149 8.484H166.413C167.971 8.484 169.144 8.76133 169.933 9.316C170.744 9.87067 171.288 10.6813 171.565 11.748C171.843 12.7933 171.981 14.1907 171.981 15.94C171.981 17.6253 171.853 19.0013 171.597 20.068C171.341 21.1133 170.808 21.9453 169.997 22.564C169.187 23.1613 167.981 23.46 166.381 23.46H163.565V30.5H159.149V8.484ZM165.293 19.588C166.019 19.588 166.531 19.5027 166.829 19.332C167.128 19.1613 167.32 18.8413 167.405 18.372C167.512 17.8813 167.565 17.0707 167.565 15.94C167.565 14.8093 167.512 14.0093 167.405 13.54C167.32 13.0707 167.128 12.7613 166.829 12.612C166.552 12.4413 166.051 12.356 165.325 12.356H163.565V19.588H165.293ZM177.733 30.5V22.884L172.517 8.484H177.029L179.909 17.988H180.197L182.981 8.484H187.333L182.117 22.884V30.5H177.733Z" fill="white"/>
</svg>
