<svg width="25" height="26" viewBox="0 0 25 26" xmlns="http://www.w3.org/2000/svg">
<path d="M12.5 0.5C5.59644 0.5 0 6.09644 0 13C0 19.9036 5.59644 25.5 12.5 25.5C19.4036 25.5 25 19.9036 25 13C25 6.09644 19.4036 0.5 12.5 0.5ZM18.8291 11.8468C17.5018 11.8468 16.2103 11.416 15.2158 10.6871L15.2079 15.6432C15.2071 16.5615 14.9262 17.4577 14.4028 18.2123C13.8793 18.9669 13.1382 19.5438 12.2784 19.8662C11.4185 20.1887 10.4807 20.2412 9.59024 20.0168C8.69975 19.7923 7.89887 19.3017 7.29447 18.6103C6.69008 17.9189 6.31091 17.0596 6.20758 16.1471C6.10425 15.2346 6.28165 14.3123 6.71613 13.5032C7.15061 12.6942 7.82149 12.0369 8.63926 11.619C9.45702 11.2012 10.3828 11.0426 11.293 11.1646V13.5984C10.8636 13.4716 10.4052 13.4832 9.98279 13.6315C9.56037 13.7798 9.19538 14.0574 8.93957 14.4248C8.68376 14.7922 8.55013 15.2308 8.55762 15.6785C8.56512 16.1261 8.71337 16.56 8.98134 16.9187C9.2493 17.2773 9.62339 17.5425 10.0505 17.6766C10.4777 17.8107 10.9362 17.8069 11.3611 17.6658C11.786 17.5246 12.1556 17.2533 12.4176 16.8902C12.6796 16.5272 12.8206 16.0909 12.8207 15.6432V5.83853H15.3244C15.3244 6.29875 15.415 6.75447 15.5911 7.17967C15.7673 7.60486 16.0254 7.9912 16.3508 8.31663C16.6763 8.64205 17.0626 8.9002 17.4878 9.07631C17.913 9.25243 18.3687 9.34307 18.829 9.34307L18.8291 11.8468Z"/>
</svg>
